# xmcd
#
# Track frame offsets:
#	150
#	5291
#	21638
#	31834
#	61141
#	68110
#	84244
#	101178
#	113602
#	129174
#	139303
#
# Disc length: 2020 seconds
#
# Revision: 1
# Processed by: cddbd v1.5.2PL0 Copyright (c) Steve Scherf et al.
# Submitted via: EasyCDDAExtractor 6.2.0.3
#
DISCID=8807e20b
DTITLE=Sui Generis - Música en Español - Sui Generis - Vida
DYEAR=1900
DGENRE=Español
TTITLE0=Canción para mi muerte
TTITLE1=Necesito
TTITLE2=Dime quién me lo robo
TTITLE3=Estación
TTITLE4=Toma dos blues
TTITLE5=Natalio Ruiz
TTITLE6=Mariel y el capitán
TTITLE7=Amigo vuelve a casa pronto
TTITLE8=Quizás por qué
TTITLE9=Cuando comenzamos a nacer
TTITLE10=Posludio (instrumental)
EXTD=
EXTT0=
EXTT1=
EXTT2=
EXTT3=
EXTT4=
EXTT5=
EXTT6=
EXTT7=
EXTT8=
EXTT9=
EXTT10=
PLAYORDER=
